<svg version="1.1" id="Layer_1" xmlns="http://www.w3.org/2000/svg" xmlns:xlink="http://www.w3.org/1999/xlink" x="0px" y="0px"
	 width="100%" viewBox="0 0 297 297" enable-background="new 0 0 297 297" xml:space="preserve">
<path fill="#198432" opacity="1.000000" stroke="none" 
	d="
M242.000000,1.000000 
	C242.444443,1.000000 242.888901,1.000000 243.775421,1.213449 
	C244.413116,1.691184 244.664185,1.882916 245.383957,1.986305 
	C262.463348,4.736102 275.359100,13.704278 285.506714,26.757183 
	C291.498352,34.464260 295.938965,43.063251 297.117859,53.238106 
	C297.439331,53.700848 297.693817,53.885960 298.000000,54.000000 
	C298.000000,54.444447 298.000000,54.888889 297.750183,55.997505 
	C297.333527,58.133511 297.021484,59.605286 297.020874,61.077190 
	C296.996552,119.969475 296.991821,178.861771 297.042603,237.754028 
	C297.044098,239.502945 297.666901,241.251358 298.000000,243.000000 
	C298.000000,243.444443 298.000000,243.888901 297.789215,244.787903 
	C297.315765,245.447952 297.126923,245.707214 297.024292,246.425751 
	C293.997681,263.254395 285.323395,276.418854 271.853424,285.684448 
	C264.086731,291.026947 254.672607,293.974487 246.000000,298.000000 
	C182.312439,298.000000 118.624878,298.000000 54.210617,297.718079 
	C36.924503,294.076416 23.757708,285.482727 13.475930,272.092804 
	C7.014439,263.678040 3.836599,253.949249 1.000000,244.000000 
	C1.000000,181.312439 1.000000,118.624878 1.306223,55.234997 
	C5.117877,36.542686 13.851330,21.692873 29.600378,12.103801 
	C37.421181,7.341976 46.493732,4.636021 55.000000,1.000000 
	C55.444447,1.000000 55.888889,1.000000 56.996544,1.251271 
	C59.131538,1.668041 60.603264,1.977589 62.075123,1.978249 
	C117.634804,2.003172 173.194504,2.008789 228.754135,1.957959 
	C230.503052,1.956359 232.251389,1.333326 234.000000,0.999999 
	C234.444443,1.000000 234.888901,1.000000 235.945053,1.230570 
	C238.371170,1.307427 240.185593,1.153714 242.000000,1.000000 
M217.996567,115.000015 
	C217.996567,115.000015 217.990555,115.013863 218.156952,114.354553 
	C218.793610,113.170486 219.430267,111.986427 220.801361,110.894798 
	C221.922241,109.911781 223.480515,109.143936 224.088226,107.908493 
	C226.713425,102.571625 229.193481,97.153320 231.479889,91.662025 
	C235.791687,81.306366 233.806961,76.525902 223.418045,72.128769 
	C207.743530,65.494492 192.029022,58.954685 176.333054,52.371052 
	C167.524216,48.676205 161.995102,50.758041 158.229797,59.422829 
	C151.380035,75.185684 144.660873,91.005280 137.818390,106.771317 
	C136.632477,109.503822 137.206390,110.599365 140.259659,110.966454 
	C144.608429,111.489296 147.926880,109.847740 151.325699,107.371483 
	C152.333649,108.088852 153.351181,108.793221 154.347366,109.526573 
	C155.905823,110.673874 157.449860,111.840790 158.062683,112.999748 
	C142.836182,112.814224 127.609589,112.542572 112.383286,112.558014 
	C110.588379,112.559830 108.795074,114.137573 106.076294,114.996658 
	C101.721489,115.264130 97.366684,115.531601 92.268341,115.666458 
	C91.824432,114.411072 91.380524,113.155693 90.936615,111.900314 
	C92.048607,111.545670 93.170082,110.858574 94.271042,110.889999 
	C101.764549,111.103920 101.982712,110.933739 101.942429,103.228645 
	C101.934837,101.776619 101.941338,100.324532 101.941338,98.949577 
	C86.830025,96.443924 76.139229,99.308548 71.634827,113.648087 
	C71.427162,114.605492 71.039162,115.562675 71.038033,116.520325 
	C71.003662,145.617462 70.990936,174.714645 71.056152,203.811676 
	C71.059242,205.192093 71.806145,206.570831 72.631714,208.536789 
	C73.519440,216.119980 78.726929,219.952942 85.021851,223.418701 
	C85.014465,223.615646 85.007080,223.812576 85.169037,224.766891 
	C87.173088,225.511215 89.171272,226.882996 91.182114,226.901810 
	C109.166100,227.070084 127.152321,227.000015 145.137878,227.000000 
	C167.453293,226.999969 189.768738,227.012146 212.084106,226.981888 
	C214.487839,226.978622 217.340134,227.621216 218.593796,223.913361 
	C219.080795,223.582321 219.567795,223.251282 220.547180,222.431427 
	C232.323273,218.106354 235.885895,209.605621 232.402390,193.152420 
	C221.583160,193.152420 210.594604,193.551102 199.661911,192.943848 
	C195.642868,192.720627 191.192291,190.881302 187.917145,188.457062 
	C179.038910,181.885452 177.115616,172.550690 180.025681,162.305374 
	C182.700607,152.887833 189.556213,147.902267 199.713242,146.622467 
	C210.020096,146.741852 220.327011,146.914688 230.633713,146.903442 
	C231.745575,146.902237 232.856293,145.833054 233.663239,144.472137 
	C233.632950,140.976349 233.828613,137.460800 233.525223,133.988876 
	C232.896912,126.799088 230.261230,120.771278 222.936661,117.089371 
	C221.286377,116.395935 219.636078,115.702499 217.996567,115.000015 
M240.135345,182.415298 
	C240.099365,174.275909 240.063400,166.136520 239.692932,157.407883 
	C238.434387,155.693130 237.175842,153.978378 235.347702,151.659653 
	C225.627579,151.439255 215.908020,151.173370 206.186661,151.049408 
	C204.790955,151.031601 203.386505,151.698441 201.379242,152.464371 
	C192.565628,154.481567 186.220764,161.472687 186.017593,169.390671 
	C185.822006,177.013229 191.869476,184.630203 199.806717,186.613007 
	C201.862350,187.126511 203.996506,187.325668 206.647522,188.290634 
	C213.065750,188.526947 219.483292,188.902237 225.902527,188.933838 
	C228.618927,188.947220 231.338898,188.238007 234.516205,187.397400 
	C236.163818,185.911636 237.811432,184.425873 240.135345,182.415298 
M137.369324,88.947517 
	C141.683350,78.672310 145.997360,68.397102 150.378860,57.961185 
	C141.521088,56.038311 136.501022,58.657959 134.264130,65.928055 
	C132.659470,71.143326 131.455505,76.481133 130.037659,81.754822 
	C127.622986,90.736122 125.180679,99.709991 122.721878,108.790794 
	C125.532372,110.231422 130.004272,108.487854 131.228043,105.148529 
	C133.127121,99.966446 135.108154,94.814392 137.369324,88.947517 
M114.711815,106.087288 
	C117.134857,97.405014 119.570686,88.726280 121.976303,80.039185 
	C123.494118,74.558060 124.966766,69.064423 126.568733,63.175503 
	C116.849747,65.049339 115.382751,66.347656 113.870743,74.854820 
	C112.740967,81.211464 111.937355,87.626976 111.034523,94.022774 
	C110.302383,99.209396 109.638733,104.405693 108.944710,109.597694 
	C109.423958,109.904114 109.903198,110.210541 110.382446,110.516968 
	C111.696960,109.276161 113.011475,108.035355 114.711815,106.087288 
z"/>
<path fill="#FDFEFE" opacity="1.000000" stroke="none" 
	d="
M54.531342,1.000000 
	C46.493732,4.636021 37.421181,7.341976 29.600378,12.103801 
	C13.851330,21.692873 5.117877,36.542686 1.306223,54.766338 
	C1.000000,37.073223 1.000000,19.146444 1.000000,1.000000 
	C18.686954,1.000000 36.374821,1.000000 54.531342,1.000000 
z"/>
<path fill="#FDFEFE" opacity="1.000000" stroke="none" 
	d="
M1.000000,244.468658 
	C3.836599,253.949249 7.014439,263.678040 13.475930,272.092804 
	C23.757708,285.482727 36.924503,294.076416 53.741959,297.718079 
	C36.405876,298.000000 18.811756,298.000000 1.000000,298.000000 
	C1.000000,280.313019 1.000000,262.625183 1.000000,244.468658 
z"/>
<path fill="#FDFEFE" opacity="1.000000" stroke="none" 
	d="
M296.999176,53.031551 
	C295.938965,43.063251 291.498352,34.464260 285.506714,26.757183 
	C275.359100,13.704278 262.463348,4.736102 245.273834,1.732402 
	C244.833618,1.329524 244.916809,1.164762 245.000000,1.000000 
	C262.592743,1.000000 280.185455,1.000000 298.000000,1.000000 
	C298.000000,18.020252 298.000000,35.041470 297.753448,52.655571 
	C297.337646,53.176155 297.168396,53.103851 296.999176,53.031551 
z"/>
<path fill="#FDFEFD" opacity="1.000000" stroke="none" 
	d="
M246.468658,298.000000 
	C254.672607,293.974487 264.086731,291.026947 271.853424,285.684448 
	C285.323395,276.418854 293.997681,263.254395 297.269287,246.325546 
	C297.667969,245.879868 297.833984,245.939926 298.000000,246.000000 
	C298.000000,263.260101 298.000000,280.520172 298.000000,298.000000 
	C280.979736,298.000000 263.958527,298.000000 246.468658,298.000000 
z"/>
<path fill="#238039" opacity="1.000000" stroke="none" 
	d="
M298.000000,242.531342 
	C297.666901,241.251358 297.044098,239.502945 297.042603,237.754028 
	C296.991821,178.861771 296.996552,119.969475 297.020874,61.077190 
	C297.021484,59.605286 297.333527,58.133511 297.750183,56.330841 
	C298.000000,118.020897 298.000000,180.041794 298.000000,242.531342 
z"/>
<path fill="#247F3A" opacity="1.000000" stroke="none" 
	d="
M233.531342,0.999999 
	C232.251389,1.333326 230.503052,1.956359 228.754135,1.957959 
	C173.194504,2.008789 117.634804,2.003172 62.075123,1.978249 
	C60.603264,1.977589 59.131538,1.668041 57.329876,1.251271 
	C115.687561,1.000000 174.375122,1.000000 233.531342,0.999999 
z"/>
<path fill="#247F3A" opacity="1.000000" stroke="none" 
	d="
M241.571533,1.000000 
	C240.185593,1.153714 238.371170,1.307427 236.278381,1.230570 
	C237.714355,1.000000 239.428711,1.000000 241.571533,1.000000 
z"/>
<path fill="#247F3A" opacity="1.000000" stroke="none" 
	d="
M244.750000,1.000000 
	C244.916809,1.164762 244.833618,1.329524 244.860535,1.748189 
	C244.664185,1.882916 244.413116,1.691184 244.108734,1.213449 
	C244.000000,1.000000 244.500000,1.000000 244.750000,1.000000 
z"/>
<path fill="#238039" opacity="1.000000" stroke="none" 
	d="
M298.000000,245.750000 
	C297.833984,245.939926 297.667969,245.879868 297.256958,245.920013 
	C297.126923,245.707214 297.315765,245.447952 297.789215,245.121216 
	C298.000000,245.000000 298.000000,245.500000 298.000000,245.750000 
z"/>
<path fill="#238039" opacity="1.000000" stroke="none" 
	d="
M297.117859,53.238106 
	C297.168396,53.103851 297.337646,53.176155 297.753448,53.124229 
	C298.000000,53.000000 298.000000,53.500000 298.000000,53.750000 
	C297.693817,53.885960 297.439331,53.700848 297.117859,53.238106 
z"/>
<path fill="#FCFEFC" opacity="1.000000" stroke="none" 
	d="
M85.038322,222.827530 
	C78.726929,219.952942 73.519440,216.119980 72.517349,207.786530 
	C72.342178,175.710403 72.281380,144.384552 72.220581,113.058708 
	C76.139229,99.308548 86.830025,96.443924 101.941338,98.949577 
	C101.941338,100.324532 101.934837,101.776619 101.942429,103.228645 
	C101.982712,110.933739 101.764549,111.103920 94.271042,110.889999 
	C93.170082,110.858574 92.048607,111.545670 90.936615,111.900314 
	C91.380524,113.155693 91.824432,114.411072 93.093788,115.860184 
	C135.262421,116.101227 176.605591,116.148537 218.200684,116.422714 
	C219.970993,117.041054 221.489365,117.432533 223.007751,117.824005 
	C230.261230,120.771278 232.896912,126.799088 233.525223,133.988876 
	C233.828613,137.460800 233.632950,140.976349 233.372681,145.059082 
	C221.721130,145.834320 210.360153,146.022598 198.999161,146.210876 
	C189.556213,147.902267 182.700607,152.887833 180.025681,162.305374 
	C177.115616,172.550690 179.038910,181.885452 187.917145,188.457062 
	C191.192291,190.881302 195.642868,192.720627 199.661911,192.943848 
	C210.594604,193.551102 221.583160,193.152420 232.402390,193.152420 
	C235.885895,209.605621 232.323273,218.106354 219.826996,222.650528 
	C174.417328,222.855591 129.727829,222.841568 85.038322,222.827530 
M92.252655,181.891861 
	C90.846405,181.285522 89.440155,180.679199 88.033905,180.072861 
	C88.314629,181.568039 88.131592,183.407532 88.946960,184.505768 
	C98.312187,197.120102 110.720772,203.978989 126.631020,204.495392 
	C144.728577,205.082809 158.757645,197.740784 169.285110,183.318756 
	C169.981445,182.364792 169.677200,180.680450 169.838348,179.335831 
	C168.483383,179.824783 167.029495,180.145355 165.808548,180.862457 
	C165.008194,181.332565 164.578262,182.405289 163.925262,183.158554 
	C154.170486,194.410690 142.101532,201.210556 126.963409,200.549957 
	C112.917747,199.937042 101.702530,193.129288 92.252655,181.891861 
M135.724731,145.256119 
	C128.887100,154.560837 131.394989,167.525391 140.705078,171.002121 
	C147.629532,173.587952 154.989243,171.210419 158.573135,165.229843 
	C162.762314,158.239212 161.533035,148.896683 155.758804,143.840790 
	C150.638931,139.357849 142.383301,139.712433 135.724731,145.256119 
M127.410912,154.789871 
	C126.404419,145.386093 121.802132,140.815704 113.343002,140.819412 
	C105.264145,140.822952 99.754234,145.461426 98.937828,152.946289 
	C97.809219,163.293411 101.762550,170.020859 110.002670,171.775558 
	C119.799599,173.861771 126.758171,167.417648 127.410912,154.789871 
z"/>
<path fill="#FBFDFB" opacity="1.000000" stroke="none" 
	d="
M150.868774,106.943192 
	C147.926880,109.847740 144.608429,111.489296 140.259659,110.966454 
	C137.206390,110.599365 136.632477,109.503822 137.818390,106.771317 
	C144.660873,91.005280 151.380035,75.185684 158.229797,59.422829 
	C161.995102,50.758041 167.524216,48.676205 176.333054,52.371052 
	C192.029022,58.954685 207.743530,65.494492 223.418045,72.128769 
	C233.806961,76.525902 235.791687,81.306366 231.479889,91.662025 
	C229.193481,97.153320 226.713425,102.571625 224.088226,107.908493 
	C223.480515,109.143936 221.922241,109.911781 220.287231,110.538498 
	C218.515472,110.488762 217.257843,110.795326 215.628326,111.017151 
	C214.499908,110.986931 213.743408,111.041466 212.742798,110.973763 
	C212.027954,110.308136 211.557220,109.764748 211.404755,109.053116 
	C211.893738,107.948792 212.064453,107.012703 212.188446,106.085983 
	C212.141708,106.095345 212.175552,106.184464 212.424805,105.999939 
	C212.759216,105.214378 212.844376,104.613327 213.087036,103.685020 
	C213.212692,102.913834 213.180847,102.469910 213.113098,101.730209 
	C212.740982,101.240494 212.404770,101.046570 212.058289,100.895020 
	C212.048050,100.937386 212.123444,100.893608 211.975555,100.590012 
	C205.373535,96.169228 203.083771,90.053970 203.167160,82.676842 
	C203.189545,80.696625 202.593826,78.709435 202.167969,76.848709 
	C202.054077,76.971977 202.264694,76.710922 202.042679,76.431824 
	C198.345505,74.709900 194.774231,73.456863 191.426971,71.761528 
	C188.948563,70.506256 187.181015,70.566643 185.499039,72.896164 
	C184.451874,74.346458 183.126282,75.595703 181.954208,76.965347 
	C181.982758,76.995522 181.956100,76.916870 181.689178,76.975891 
	C181.225067,77.328163 181.027878,77.621414 180.874115,77.925995 
	C180.917572,77.937309 180.875626,77.857910 180.538574,77.979065 
	C177.069366,79.384987 173.736954,82.088776 170.843735,81.680466 
	C163.094391,80.586815 159.584839,84.008217 157.910522,90.819405 
	C157.597885,92.091240 156.991119,93.290756 156.502502,94.545830 
	C156.484924,94.568008 156.472504,94.623238 156.280090,94.863419 
	C155.942932,95.700134 155.798187,96.296661 155.390625,97.138359 
	C155.079376,98.572365 155.030930,99.761200 154.651855,101.068817 
	C153.170395,103.106133 152.019592,105.024666 150.868774,106.943192 
z"/>
<path fill="#FAFDFA" opacity="1.000000" stroke="none" 
	d="
M206.094604,187.669205 
	C203.996506,187.325668 201.862350,187.126511 199.806717,186.613007 
	C191.869476,184.630203 185.822006,177.013229 186.017593,169.390671 
	C186.220764,161.472687 192.565628,154.481567 202.149994,152.308868 
	C213.919601,152.190125 224.918442,152.226868 235.917297,152.263626 
	C237.175842,153.978378 238.434387,155.693130 239.794662,158.167786 
	C239.750610,166.931839 239.604828,174.935974 239.459045,182.940094 
	C237.811432,184.425873 236.163818,185.911636 233.815063,187.582169 
	C224.107483,187.734360 215.101044,187.701782 206.094604,187.669205 
M207.590179,178.581711 
	C211.735611,178.044037 213.885620,176.646637 214.620041,171.577423 
	C215.185562,167.673965 216.450455,164.405594 212.389481,162.776382 
	C209.665359,161.683502 205.401260,161.174561 203.322327,162.594635 
	C200.994995,164.184387 199.307510,168.221588 199.236633,171.238312 
	C199.138382,175.421631 202.505997,177.828033 207.590179,178.581711 
z"/>
<path fill="#F7FBF8" opacity="1.000000" stroke="none" 
	d="
M137.211884,89.298561 
	C135.108154,94.814392 133.127121,99.966446 131.228043,105.148529 
	C130.004272,108.487854 125.532372,110.231422 122.721878,108.790794 
	C125.180679,99.709991 127.622986,90.736122 130.037659,81.754822 
	C131.455505,76.481133 132.659470,71.143326 134.264130,65.928055 
	C136.501022,58.657959 141.521088,56.038311 150.378860,57.961185 
	C145.997360,68.397102 141.683350,78.672310 137.211884,89.298561 
z"/>
<path fill="#17862C" opacity="1.000000" stroke="none" 
	d="
M218.002441,224.023346 
	C217.340134,227.621216 214.487839,226.978622 212.084106,226.981888 
	C189.768738,227.012146 167.453293,226.999969 145.137878,227.000000 
	C127.152321,227.000015 109.166100,227.070084 91.182114,226.901810 
	C89.171272,226.882996 87.173088,225.511215 85.553055,224.386108 
	C129.958862,224.011337 173.980652,224.017349 218.002441,224.023346 
z"/>
<path fill="#F7FBF7" opacity="1.000000" stroke="none" 
	d="
M114.518906,106.440918 
	C113.011475,108.035355 111.696960,109.276161 110.382446,110.516968 
	C109.903198,110.210541 109.423958,109.904114 108.944710,109.597694 
	C109.638733,104.405693 110.302383,99.209396 111.034523,94.022774 
	C111.937355,87.626976 112.740967,81.211464 113.870743,74.854820 
	C115.382751,66.347656 116.849747,65.049339 126.568733,63.175503 
	C124.966766,69.064423 123.494118,74.558060 121.976303,80.039185 
	C119.570686,88.726280 117.134857,97.405014 114.518906,106.440918 
z"/>
<path fill="#1B8332" opacity="1.000000" stroke="none" 
	d="
M151.097244,107.157333 
	C152.019592,105.024666 153.170395,103.106133 154.620773,101.382767 
	C155.720367,103.274574 156.520386,104.971230 157.320404,106.667877 
	C157.809097,106.426819 158.297806,106.185768 158.786514,105.944710 
	C158.358093,104.258446 157.929688,102.572182 157.515625,100.942444 
	C161.460342,98.138374 165.269501,95.430656 169.799088,92.210823 
	C167.289413,91.247787 166.028259,90.763847 164.767090,90.279907 
	C164.838196,89.878494 164.909286,89.477081 164.980377,89.075668 
	C166.949677,89.323242 169.243774,89.013496 170.821472,89.932976 
	C174.235291,91.922562 177.179657,91.502411 180.627792,90.063423 
	C184.961975,88.254677 185.851547,89.223106 185.169388,94.359550 
	C181.594650,94.195152 178.439789,93.911217 175.308823,94.077347 
	C166.703812,94.533905 158.534790,103.663528 162.362000,110.311172 
	C175.459625,110.686707 188.221069,110.825516 200.986633,111.303497 
	C200.993851,112.094902 200.996933,112.547150 200.531342,112.999519 
	C186.375122,112.999557 172.687561,112.999474 159.000000,112.999390 
	C157.449860,111.840790 155.905823,110.673874 154.347366,109.526573 
	C153.351181,108.793221 152.333649,108.088852 151.097244,107.157333 
z"/>
<path fill="#1C8336" opacity="1.000000" stroke="none" 
	d="
M158.531342,112.999573 
	C172.687561,112.999474 186.375122,112.999557 200.947998,112.999680 
	C203.222214,112.999603 204.611115,112.999496 206.375000,112.999557 
	C207.500000,112.999718 208.250000,112.999710 209.375000,112.999817 
	C210.500000,112.999962 211.250000,112.999977 212.360184,112.997162 
	C213.813644,112.363510 214.906937,111.732697 216.000229,111.101883 
	C217.257843,110.795326 218.515472,110.488762 219.920013,110.492279 
	C219.430267,111.986427 218.793610,113.170486 217.606155,114.681824 
	C180.370590,115.000984 143.685806,114.992882 107.001030,114.984772 
	C108.795074,114.137573 110.588379,112.559830 112.383286,112.558014 
	C127.609589,112.542572 142.836182,112.814224 158.531342,112.999573 
z"/>
<path fill="#187026" opacity="1.000000" stroke="none" 
	d="
M218.298126,223.968353 
	C173.980652,224.017349 129.958862,224.011337 85.468384,224.007416 
	C85.007080,223.812576 85.014465,223.615646 85.030090,223.123108 
	C129.727829,222.841568 174.417328,222.855591 219.580811,222.894943 
	C219.567795,223.251282 219.080795,223.582321 218.298126,223.968353 
z"/>
<path fill="#137124" opacity="1.000000" stroke="none" 
	d="
M106.538666,114.990723 
	C143.685806,114.992882 180.370590,115.000984 217.522949,115.011475 
	C217.990555,115.013863 217.996567,115.000015 217.977570,115.301041 
	C217.955322,115.799995 217.952057,115.997917 217.948776,116.195847 
	C176.605591,116.148537 135.262421,116.101227 93.465561,115.926498 
	C97.366684,115.531601 101.721489,115.264130 106.538666,114.990723 
z"/>
<path fill="#127326" opacity="1.000000" stroke="none" 
	d="
M71.927704,113.353394 
	C72.281380,144.384552 72.342178,175.710403 72.304817,207.493317 
	C71.806145,206.570831 71.059242,205.192093 71.056152,203.811676 
	C70.990936,174.714645 71.003662,145.617462 71.038033,116.520325 
	C71.039162,115.562675 71.427162,114.605492 71.927704,113.353394 
z"/>
<path fill="#176D23" opacity="1.000000" stroke="none" 
	d="
M199.356201,146.416672 
	C210.360153,146.022598 221.721130,145.834320 233.524826,145.452652 
	C232.856293,145.833054 231.745575,146.902237 230.633713,146.903442 
	C220.327011,146.914688 210.020096,146.741852 199.356201,146.416672 
z"/>
<path fill="#1C6E2B" opacity="1.000000" stroke="none" 
	d="
M235.632507,151.961639 
	C224.918442,152.226868 213.919601,152.190125 202.453430,152.100891 
	C203.386505,151.698441 204.790955,151.031601 206.186661,151.049408 
	C215.908020,151.173370 225.627579,151.439255 235.632507,151.961639 
z"/>
<path fill="#137124" opacity="1.000000" stroke="none" 
	d="
M206.371063,187.979919 
	C215.101044,187.701782 224.107483,187.734360 233.585571,187.812073 
	C231.338898,188.238007 228.618927,188.947220 225.902527,188.933838 
	C219.483292,188.902237 213.065750,188.526947 206.371063,187.979919 
z"/>
<path fill="#146F25" opacity="1.000000" stroke="none" 
	d="
M239.797195,182.677704 
	C239.604828,174.935974 239.750610,166.931839 239.961914,158.462418 
	C240.063400,166.136520 240.099365,174.275909 239.797195,182.677704 
z"/>
<path fill="#1C8336" opacity="1.000000" stroke="none" 
	d="
M218.200684,116.422714 
	C217.952057,115.997917 217.955322,115.799995 217.972198,115.305565 
	C219.636078,115.702499 221.286377,116.395935 222.972198,117.456688 
	C221.489365,117.432533 219.970993,117.041054 218.200684,116.422714 
z"/>
<path fill="#1F7F34" opacity="1.000000" stroke="none" 
	d="
M92.498550,182.177567 
	C101.702530,193.129288 112.917747,199.937042 126.963409,200.549957 
	C142.101532,201.210556 154.170486,194.410690 163.925262,183.158554 
	C164.578262,182.405289 165.008194,181.332565 165.808548,180.862457 
	C167.029495,180.145355 168.483383,179.824783 169.838348,179.335831 
	C169.677200,180.680450 169.981445,182.364792 169.285110,183.318756 
	C158.757645,197.740784 144.728577,205.082809 126.631020,204.495392 
	C110.720772,203.978989 98.312187,197.120102 88.946960,184.505768 
	C88.131592,183.407532 88.314629,181.568039 88.033905,180.072861 
	C89.440155,180.679199 90.846405,181.285522 92.498550,182.177567 
z"/>
<path fill="#227C34" opacity="1.000000" stroke="none" 
	d="
M135.969299,144.968170 
	C142.383301,139.712433 150.638931,139.357849 155.758804,143.840790 
	C161.533035,148.896683 162.762314,158.239212 158.573135,165.229843 
	C154.989243,171.210419 147.629532,173.587952 140.705078,171.002121 
	C131.394989,167.525391 128.887100,154.560837 135.969299,144.968170 
M149.801331,144.064178 
	C145.213562,142.839508 141.086365,143.698929 138.174255,147.531586 
	C134.668579,152.145432 134.295441,157.637451 136.849930,162.531906 
	C138.260696,165.234970 141.472488,167.721069 144.411987,168.725052 
	C148.317673,170.059021 152.278473,168.612671 154.956192,164.965912 
	C159.566772,158.686813 157.395401,148.330032 149.801331,144.064178 
z"/>
<path fill="#237C34" opacity="1.000000" stroke="none" 
	d="
M127.437698,155.197281 
	C126.758171,167.417648 119.799599,173.861771 110.002670,171.775558 
	C101.762550,170.020859 97.809219,163.293411 98.937828,152.946289 
	C99.754234,145.461426 105.264145,140.822952 113.343002,140.819412 
	C121.802132,140.815704 126.404419,145.386093 127.437698,155.197281 
M119.007629,145.119690 
	C112.737068,142.510315 107.672127,143.555054 104.372513,148.138443 
	C100.878517,152.991837 101.345955,161.383865 105.352455,165.731277 
	C110.080605,170.861710 118.510208,170.136322 122.007072,164.284027 
	C124.708435,159.763092 125.335808,150.172226 119.007629,145.119690 
z"/>
<path fill="#198432" opacity="1.000000" stroke="none" 
	d="
M212.000000,113.000000 
	C211.250000,112.999977 210.500000,112.999962 209.370758,112.594269 
	C208.437103,109.360840 207.882675,106.533089 207.328247,103.705338 
	C206.700134,103.666855 206.072006,103.628372 205.443893,103.589897 
	C205.160889,105.341309 204.611603,107.103020 204.678787,108.840897 
	C204.732956,110.241997 205.531631,111.614304 206.000000,112.999390 
	C204.611115,112.999496 203.222214,112.999603 201.416672,112.999550 
	C200.996933,112.547150 200.993851,112.094902 200.948639,111.009903 
	C200.882706,110.180923 200.858902,109.984711 200.826233,109.827766 
	C200.817352,109.867043 200.745148,109.831367 200.894867,109.787773 
	C201.318848,109.507217 201.307999,109.259338 200.934937,108.820831 
	C200.857834,108.641129 200.903046,108.252655 200.930481,107.899979 
	C201.142746,100.282928 196.980072,95.827240 190.232147,96.222229 
	C190.113815,96.251244 190.006836,96.032303 189.818359,95.844803 
	C189.296265,95.550690 188.962662,95.444084 188.699677,95.330093 
	C188.770309,95.322708 188.749084,95.463150 188.573792,95.141968 
	C187.481918,94.699478 186.565338,94.578163 185.637604,94.450058 
	C185.626465,94.443260 185.600174,94.445358 185.600174,94.445358 
	C185.851547,89.223106 184.961975,88.254677 180.627792,90.063423 
	C177.179657,91.502411 174.235291,91.922562 170.821472,89.932976 
	C169.243774,89.013496 166.949677,89.323242 164.980377,89.075668 
	C164.909286,89.477081 164.838196,89.878494 164.767090,90.279907 
	C166.028259,90.763847 167.289413,91.247787 169.799088,92.210823 
	C165.269501,95.430656 161.460342,98.138374 157.515625,100.942444 
	C157.929688,102.572182 158.358093,104.258446 158.786514,105.944710 
	C158.297806,106.185768 157.809097,106.426819 157.320404,106.667877 
	C156.520386,104.971230 155.720367,103.274574 154.951416,101.263977 
	C155.030930,99.761200 155.079376,98.572365 155.661926,96.944626 
	C156.288177,95.878235 156.380341,95.250732 156.472504,94.623238 
	C156.472504,94.623238 156.484924,94.568008 156.865662,94.591293 
	C157.857300,94.133492 158.697388,93.778450 159.042374,93.151146 
	C161.525146,88.636353 164.736862,85.882759 170.431732,86.814697 
	C171.681778,87.019264 173.301086,84.967384 174.239807,84.311401 
	C178.012085,84.311401 181.636581,84.311401 184.774460,84.311401 
	C183.316086,81.897461 182.095856,79.877686 180.875610,77.857910 
	C180.875626,77.857910 180.917572,77.937309 181.101974,77.808624 
	C181.509613,77.425583 181.732864,77.171227 181.956100,76.916870 
	C181.956100,76.916870 181.982758,76.995522 182.337616,76.958405 
	C186.190048,75.873283 189.687607,74.825279 193.185181,73.777275 
	C193.392441,74.312927 193.599701,74.848579 193.806961,75.384232 
	C193.008102,76.413277 192.209229,77.442322 191.410355,78.471367 
	C191.597244,78.891212 191.784134,79.311050 191.971024,79.730896 
	C195.402237,78.724243 198.833466,77.717583 202.264694,76.710922 
	C202.264694,76.710922 202.054077,76.971977 202.096405,77.327438 
	C202.313797,81.963440 202.625290,86.245171 202.588089,90.523880 
	C202.575500,91.972626 202.082199,93.819237 201.111511,94.779144 
	C198.608810,97.254112 199.440979,99.284698 202.067459,99.991196 
	C205.268738,100.852318 208.758469,100.641045 212.123444,100.893608 
	C212.123444,100.893608 212.048050,100.937386 212.191833,101.130524 
	C212.606735,101.557762 212.877869,101.791870 213.149002,102.025986 
	C213.180847,102.469910 213.212692,102.913834 212.886978,103.908165 
	C212.411453,105.033875 212.293503,105.609169 212.175552,106.184464 
	C212.175552,106.184464 212.141708,106.095345 211.913910,106.309189 
	C211.486252,107.422470 211.286362,108.321915 211.086487,109.221359 
	C211.557220,109.764748 212.027954,110.308136 212.621323,111.212868 
	C212.495972,112.049477 212.247986,112.524734 212.000000,113.000000 
z"/>
<path fill="#1B8332" opacity="1.000000" stroke="none" 
	d="
M180.538574,77.979065 
	C182.095856,79.877686 183.316086,81.897461 184.774460,84.311401 
	C181.636581,84.311401 178.012085,84.311401 174.239807,84.311401 
	C173.301086,84.967384 171.681778,87.019264 170.431732,86.814697 
	C164.736862,85.882759 161.525146,88.636353 159.042374,93.151146 
	C158.697388,93.778450 157.857300,94.133492 156.883240,94.569107 
	C156.991119,93.290756 157.597885,92.091240 157.910522,90.819405 
	C159.584839,84.008217 163.094391,80.586815 170.843735,81.680466 
	C173.736954,82.088776 177.069366,79.384987 180.538574,77.979065 
z"/>
<path fill="#1B8332" opacity="1.000000" stroke="none" 
	d="
M211.975555,100.590012 
	C208.758469,100.641045 205.268738,100.852318 202.067459,99.991196 
	C199.440979,99.284698 198.608810,97.254112 201.111511,94.779144 
	C202.082199,93.819237 202.575500,91.972626 202.588089,90.523880 
	C202.625290,86.245171 202.313797,81.963440 202.210281,77.204163 
	C202.593826,78.709435 203.189545,80.696625 203.167160,82.676842 
	C203.083771,90.053970 205.373535,96.169228 211.975555,100.590012 
z"/>
<path fill="#1B8332" opacity="1.000000" stroke="none" 
	d="
M202.042679,76.431824 
	C198.833466,77.717583 195.402237,78.724243 191.971024,79.730896 
	C191.784134,79.311050 191.597244,78.891212 191.410355,78.471367 
	C192.209229,77.442322 193.008102,76.413277 193.806961,75.384232 
	C193.599701,74.848579 193.392441,74.312927 193.185181,73.777275 
	C189.687607,74.825279 186.190048,75.873283 182.309067,76.928223 
	C183.126282,75.595703 184.451874,74.346458 185.499039,72.896164 
	C187.181015,70.566643 188.948563,70.506256 191.426971,71.761528 
	C194.774231,73.456863 198.345505,74.709900 202.042679,76.431824 
z"/>
<path fill="#1B8332" opacity="1.000000" stroke="none" 
	d="
M212.360184,112.997162 
	C212.247986,112.524734 212.495972,112.049477 212.865433,111.335106 
	C213.743408,111.041466 214.499908,110.986931 215.628326,111.017143 
	C214.906937,111.732697 213.813644,112.363510 212.360184,112.997162 
z"/>
<path fill="#1B8332" opacity="1.000000" stroke="none" 
	d="
M211.404739,109.053116 
	C211.286362,108.321915 211.486252,107.422470 211.960648,106.299820 
	C212.064453,107.012703 211.893738,107.948792 211.404739,109.053116 
z"/>
<path fill="#1B8332" opacity="1.000000" stroke="none" 
	d="
M156.280090,94.863419 
	C156.380341,95.250732 156.288177,95.878235 155.924728,96.699463 
	C155.798187,96.296661 155.942932,95.700134 156.280090,94.863419 
z"/>
<path fill="#1B8332" opacity="1.000000" stroke="none" 
	d="
M212.424805,105.999939 
	C212.293503,105.609169 212.411453,105.033875 212.729462,104.235428 
	C212.844376,104.613327 212.759216,105.214378 212.424805,105.999939 
z"/>
<path fill="#1B8332" opacity="1.000000" stroke="none" 
	d="
M213.113098,101.730209 
	C212.877869,101.791870 212.606735,101.557762 212.202072,101.088150 
	C212.404770,101.046570 212.740982,101.240494 213.113098,101.730209 
z"/>
<path fill="#1B8332" opacity="1.000000" stroke="none" 
	d="
M181.689178,76.975891 
	C181.732864,77.171227 181.509613,77.425583 181.058533,77.797302 
	C181.027878,77.621414 181.225067,77.328163 181.689178,76.975891 
z"/>
<path fill="#1C8234" opacity="1.000000" stroke="none" 
	d="
M207.164673,178.531479 
	C202.505997,177.828033 199.138382,175.421631 199.236633,171.238312 
	C199.307510,168.221588 200.994995,164.184387 203.322327,162.594635 
	C205.401260,161.174561 209.665359,161.683502 212.389481,162.776382 
	C216.450455,164.405594 215.185562,167.673965 214.620041,171.577423 
	C213.885620,176.646637 211.735611,178.044037 207.164673,178.531479 
z"/>
<path fill="#F9FDFA" opacity="1.000000" stroke="none" 
	d="
M190.006836,96.032303 
	C190.006836,96.032303 190.113815,96.251244 190.452255,96.507050 
	C194.161484,100.592789 197.532257,104.422722 200.903046,108.252655 
	C200.903046,108.252655 200.857834,108.641129 200.832825,109.017166 
	C200.807800,109.393211 200.745148,109.831367 200.745148,109.831367 
	C200.745148,109.831367 200.817352,109.867043 200.372101,109.879700 
	C187.293152,109.953049 174.659485,110.013748 162.025803,110.074448 
	C158.534790,103.663528 166.703812,94.533905 175.308823,94.077347 
	C178.439789,93.911217 181.594650,94.195152 185.169388,94.359550 
	C185.600174,94.445358 185.626465,94.443260 185.893372,94.661133 
	C187.023209,95.073730 187.886154,95.268440 188.749084,95.463150 
	C188.749084,95.463150 188.770309,95.322708 188.857742,95.558243 
	C189.299057,95.873283 189.652954,95.952789 190.006836,96.032303 
z"/>
<path fill="#156C20" opacity="1.000000" stroke="none" 
	d="
M162.362000,110.311172 
	C174.659485,110.013748 187.293152,109.953049 200.380966,109.840424 
	C200.858902,109.984711 200.882706,110.180923 200.944489,110.670731 
	C188.221069,110.825516 175.459625,110.686707 162.362000,110.311172 
z"/>
<path fill="#1B8332" opacity="1.000000" stroke="none" 
	d="
M206.375000,112.999557 
	C205.531631,111.614304 204.732956,110.241997 204.678787,108.840897 
	C204.611603,107.103020 205.160889,105.341309 205.443893,103.589897 
	C206.072006,103.628372 206.700134,103.666855 207.328247,103.705338 
	C207.882675,106.533089 208.437103,109.360840 208.995758,112.594139 
	C208.250000,112.999710 207.500000,112.999718 206.375000,112.999557 
z"/>
<path fill="#FAFCFA" opacity="1.000000" stroke="none" 
	d="
M150.202530,144.162094 
	C157.395401,148.330032 159.566772,158.686813 154.956192,164.965912 
	C152.278473,168.612671 148.317673,170.059021 144.411987,168.725052 
	C141.472488,167.721069 138.260696,165.234970 136.849930,162.531906 
	C134.295441,157.637451 134.668579,152.145432 138.174255,147.531586 
	C141.086365,143.698929 145.213562,142.839508 150.202530,144.162094 
z"/>
<path fill="#FBFDFB" opacity="1.000000" stroke="none" 
	d="
M119.346512,145.330933 
	C125.335808,150.172226 124.708435,159.763092 122.007072,164.284027 
	C118.510208,170.136322 110.080605,170.861710 105.352455,165.731277 
	C101.345955,161.383865 100.878517,152.991837 104.372513,148.138443 
	C107.672127,143.555054 112.737068,142.510315 119.346512,145.330933 
z"/>
<path fill="#1B8332" opacity="1.000000" stroke="none" 
	d="
M200.930481,107.899979 
	C197.532257,104.422722 194.161484,100.592789 190.570587,96.478043 
	C196.980072,95.827240 201.142746,100.282928 200.930481,107.899979 
z"/>
<path fill="#1B8332" opacity="1.000000" stroke="none" 
	d="
M188.573792,95.141968 
	C187.886154,95.268440 187.023209,95.073730 185.904510,94.667938 
	C186.565338,94.578163 187.481918,94.699478 188.573792,95.141968 
z"/>
<path fill="#1B8332" opacity="1.000000" stroke="none" 
	d="
M200.894867,109.787773 
	C200.745148,109.831367 200.807800,109.393211 200.909912,109.196869 
	C201.307999,109.259338 201.318848,109.507217 200.894867,109.787773 
z"/>
<path fill="#1B8332" opacity="1.000000" stroke="none" 
	d="
M189.818359,95.844803 
	C189.652954,95.952789 189.299057,95.873283 188.787109,95.565620 
	C188.962662,95.444084 189.296265,95.550690 189.818359,95.844803 
z"/>
</svg>